<?xml version="1.0" encoding="utf-8"?>
<!-- Generator: Adobe Illustrator 26.0.1, SVG Export Plug-In . SVG Version: 6.00 Build 0)  -->
<svg version="1.1" xmlns="http://www.w3.org/2000/svg" xmlns:xlink="http://www.w3.org/1999/xlink" x="0px" y="0px"
	 viewBox="0 0 250 250" style="enable-background:new 0 0 250 250;" xml:space="preserve">
<style type="text/css">
	.st0{display:none;}
	.st1{display:inline;fill:#7C7C7C;}
	.st2{display:inline;}
	.st3{fill:#E74225;}
	.st4{fill:#FFFFFF;}
	.st5{fill:#FFC752;}
	.st6{fill:none;}
</style>
<g id="Guide" class="st0">
	<rect x="2.5" y="2.5" class="st1" width="245" height="245"/>
</g>
<g id="Astronaut" class="st0">
	<g class="st2">
		<path class="st3" d="M215.9,239.8H49.3c-7.5,0-13.5-6-13.5-13.5l0,0v-74.1c0-7.5,6-13.5,13.5-13.5l0,0h15.2c3,0,5.5,2.5,5.5,5.5
			c0,3-2.5,5.5-5.5,5.5H49.3c-1.4,0-2.5,1.1-2.5,2.5v74.1c0,1.4,1.1,2.5,2.5,2.5h166.7c1.4,0,2.5-1.1,2.5-2.5v-74.1
			c0-1.4-1.1-2.5-2.5-2.5h-15.2c-3,0-5.5-2.5-5.5-5.5c0-3,2.5-5.5,5.5-5.5h15.2c7.5,0,13.5,6,13.5,13.5l0,0v74.1
			C229.4,233.8,223.4,239.8,215.9,239.8z"/>
		<path class="st3" d="M181.4,170.4c-3,0-5.5-2.5-5.5-5.5c0-1.7,0.8-3.3,2.2-4.4c33.7-25.1,40.6-72.8,15.5-106.5
			c-25.1-33.7-72.8-40.6-106.5-15.5C53.5,63.6,46.5,111.3,71.7,145c4.1,5.4,8.8,10.3,14.2,14.5c2.4,1.9,2.8,5.3,0.9,7.7
			c-1.9,2.4-5.3,2.8-7.7,0.9l0,0C41.2,138.5,34.5,83.8,64.1,45.9C93.7,8.1,148.4,1.4,186.3,31c37.9,29.6,44.6,84.3,14.9,122.2
			c-4.8,6.1-10.3,11.5-16.5,16.1C183.8,170,182.6,170.4,181.4,170.4z"/>
		<path class="st3" d="M178.4,191.9h-93c-9,0-16.2-7.3-16.2-16.3c0-9,7.3-16.2,16.2-16.2h93c9,0,16.2,7.3,16.2,16.3
			C194.6,184.6,187.4,191.8,178.4,191.9L178.4,191.9z M85.4,170.3c-2.9,0-5.2,2.3-5.2,5.2s2.3,5.2,5.2,5.2h93c2.9,0,5.2-2.3,5.2-5.2
			s-2.3-5.2-5.2-5.2H85.4z"/>
		<path class="st3" d="M132.6,153.5c-29.6,0-53.6-24-53.6-53.6s24-53.6,53.6-53.6s53.6,24,53.6,53.6
			C186.2,129.5,162.2,153.5,132.6,153.5z M132.6,55.4c-24.5,0-44.4,19.9-44.4,44.4s19.9,44.4,44.4,44.4S177,124.4,177,99.9
			C177,75.3,157.1,55.5,132.6,55.4z"/>
		<path class="st3" d="M197.4,239.8h-131c-3,0-5.5-2.5-5.5-5.5v-48c0-3,2.5-5.5,5.5-5.5h131c3,0,5.5,2.5,5.5,5.5v48
			C202.9,237.4,200.4,239.8,197.4,239.8z M71.9,228.8h120v-36.9h-120V228.8z"/>
		<path class="st4" d="M158.6,104h-0.4c-3-0.2-5.3-2.8-5.1-5.9c0.2-4.3-1.1-8.5-3.8-11.9c-2.6-3.1-6.2-5.2-10.2-5.9
			c-3-0.5-5-3.4-4.5-6.4c0.5-3,3.4-5,6.4-4.5l0,0c14.1,2.3,24.1,15.1,23.1,29.4C163.9,101.8,161.5,104,158.6,104z"/>
		<path class="st3" d="M239.7,25.8c-4.3,0-7.8-3.5-7.8-7.8c0-4.3,3.5-7.8,7.8-7.8c4.3,0,7.8,3.5,7.8,7.8l0,0
			C247.5,22.3,244,25.8,239.7,25.8z M239.7,14.8c-1.7,0-3.1,1.4-3.1,3.1c0,1.7,1.4,3.1,3.1,3.1c1.7,0,3.1-1.4,3.1-3.1
			C242.7,16.2,241.4,14.8,239.7,14.8z"/>
		<path class="st3" d="M10.3,124.5c-4.3,0-7.8-3.5-7.8-7.8c0-4.3,3.5-7.8,7.8-7.8c4.3,0,7.8,3.5,7.8,7.8l0,0
			C18.2,120.9,14.7,124.5,10.3,124.5z M10.3,113.4c-1.7,0-3.1,1.4-3.1,3.1c0,1.7,1.4,3.1,3.1,3.1s3.1-1.4,3.1-3.1
			C13.4,114.8,12,113.5,10.3,113.4L10.3,113.4z"/>
	</g>
</g>
<g id="Constellation" class="st0">
	<g class="st2">
		<path class="st5" d="M102.1,121.7c-2,0-3.7-1.4-4.2-3.4L85.8,62.7L47.3,79.6c-2.2,0.9-4.7,0-5.6-2.2c-0.9-2.2,0-4.7,2.2-5.6l0,0
			l43.3-18.9c2.2-0.9,4.7,0,5.6,2.2c0.1,0.3,0.2,0.5,0.3,0.8l12.4,56.9l19.9-2.1c2.4-0.3,4.5,1.5,4.7,3.8c0.3,2.4-1.5,4.5-3.8,4.7
			l-23.7,2.6H102.1z"/>
		<path class="st5" d="M150.6,114.8c-2.4,0-4.3-1.9-4.3-4.3c0-1.9,1.3-3.6,3.1-4.1l68.3-19.9c2.3-0.7,4.6,0.6,5.3,2.9
			c0.7,2.3-0.6,4.6-2.9,5.3l-68.3,19.9C151.4,114.7,151,114.8,150.6,114.8z"/>
		<path class="st5" d="M215.6,179.9h-0.7c-2.3-0.4-3.9-2.6-3.5-4.9c0,0,0,0,0,0l12.9-76.3c0.4-2.4,2.6-4,5-3.6s4,2.6,3.6,5
			l-12.9,76.2C219.6,178.5,217.7,180,215.6,179.9z"/>
		<path class="st5" d="M197.3,188.5c-1.2,0-2.3-0.5-3.1-1.4l-54.3-58.9c-1.8-1.6-1.9-4.3-0.4-6c1.6-1.8,4.3-1.9,6-0.4
			c0.2,0.2,0.5,0.5,0.7,0.7l54.3,58.9c1.6,1.7,1.5,4.4-0.2,6c-0.8,0.7-1.8,1.1-2.9,1.1L197.3,188.5z"/>
		<path class="st5" d="M25.2,100.8c-12.6,0-22.7-10.3-22.7-22.9c0-12.6,10.3-22.7,22.9-22.7c12.6,0,22.7,10.3,22.7,22.9
			c0,5.3-1.9,10.4-5.2,14.4l0,0c-3.9,4.7-9.5,7.6-15.5,8.1C26.6,100.7,25.9,100.8,25.2,100.8z M25.2,63.5h-1.3
			c-7.8,0.9-13.5,7.9-12.6,15.7C12.1,87,19.2,92.7,27,91.8c3.6-0.4,6.9-2.1,9.2-4.8l0,0c5.1-6,4.5-14.9-1.5-20.1
			C32,64.6,28.7,63.4,25.2,63.5L25.2,63.5z"/>
		<path class="st5" d="M231.3,103.2c-8.9-0.1-16-7.3-16-16.2c0.1-8.9,7.3-16,16.2-16c8.9,0.1,16,7.3,16,16.2c0,6.7-4.2,12.7-10.5,15
			C235.2,102.9,233.2,103.2,231.3,103.2z M231.3,79.6c-4.2,0-7.5,3.3-7.6,7.5c0,4.2,3.3,7.5,7.5,7.6c0.9,0,1.8-0.2,2.7-0.5l0,0
			c3.9-1.5,5.8-5.8,4.4-9.7C237.2,81.6,234.4,79.6,231.3,79.6z"/>
		<path class="st5" d="M209.7,204c-8.9,0-16.1-7.1-16.1-16c0-8.9,7.1-16.1,16-16.1c8.9,0,16.1,7.1,16.1,16c0,6.7-4.2,12.8-10.5,15.1
			l0,0C213.5,203.7,211.6,204,209.7,204z M213.8,199 M209.7,180.4c-4.2,0-7.5,3.4-7.5,7.5c0,4.2,3.4,7.5,7.5,7.5
			c4.2,0,7.5-3.4,7.5-7.5c0-0.9-0.2-1.8-0.5-2.6C215.7,182.4,212.9,180.4,209.7,180.4z"/>
		<path class="st4" d="M139.4,130.1c-8.9-0.1-16-7.3-15.9-16.1s7.3-16,16.1-15.9s16,7.3,15.9,16.1c0,3.7-1.4,7.4-3.8,10.2
			C148.7,128.1,144.1,130.1,139.4,130.1z M139.4,106.6h-0.7c-4.1,0.2-7.3,3.7-7.1,7.8c0.2,4.1,3.7,7.3,7.8,7.1
			c4.1-0.2,7.3-3.7,7.1-7.8C146.3,109.8,143.2,106.7,139.4,106.6z"/>
		<path class="st5" d="M126.9,204.6c18.3,0,18.4-28.5,0-28.5S108.5,204.6,126.9,204.6z"/>
		<path class="st5" d="M100.6,216.4c9.2,0,9.2-14.2,0-14.2S91.4,216.4,100.6,216.4z"/>
		<path class="st5" d="M138.9,47.8c9.2,0,9.2-14.2,0-14.2S129.7,47.8,138.9,47.8z"/>
	</g>
</g>
<g id="Droid">
	<g>
		<path class="st5" d="M87.2,146.4c-9.5,0-17.3-7.7-17.3-17.3c0-9.5,7.7-17.3,17.3-17.3c9.5,0,17.3,7.7,17.3,17.3
			C104.5,138.7,96.8,146.4,87.2,146.4z M87.2,120.1c-5,0-9.1,4.1-9.1,9.1c0,5,4.1,9.1,9.1,9.1c5,0,9.1-4.1,9.1-9.1
			C96.3,124.1,92.3,120.1,87.2,120.1L87.2,120.1z"/>
		<path class="st5" d="M156,146.4c-9.5,0-17.3-7.7-17.3-17.3c0-9.5,7.7-17.3,17.3-17.3c9.5,0,17.3,7.7,17.3,17.3
			C173.2,138.7,165.5,146.4,156,146.4z M156,120.1c-5,0-9.1,4.1-9.1,9.1c0,5,4.1,9.1,9.1,9.1c5,0,9.1-4.1,9.1-9.1
			C165,124.1,161,120.1,156,120.1z"/>
		<path class="st5" d="M222.5,16.2c8.8,0,8.8-13.7,0-13.7S213.7,16.2,222.5,16.2z"/>
		<path class="st5" d="M61.6,247.5c2.8-0.2,5-2.7,4.8-5.5c-0.2-2.5-2.2-4.6-4.8-4.8c-2.8,0.2-5,2.7-4.8,5.5
			C57,245.3,59,247.3,61.6,247.5z"/>
		<path class="st5" d="M176.4,200H71.1c-16.9,0-30.5-13.7-30.5-30.5v-54.2c0-16.9,13.7-30.5,30.5-30.5h105.3
			c16.9,0,30.5,13.7,30.5,30.5v54.2C206.9,186.3,193.2,199.9,176.4,200z M71.1,92.9c-12.3,0-22.3,10-22.3,22.3v54.2
			c0,12.3,10,22.3,22.3,22.3h105.3c12.3,0,22.3-10,22.3-22.3v-54.2c0-12.3-10-22.3-22.3-22.3H71.1z"/>
		<path class="st5" d="M123,54.2c-13.2,0-24-10.7-24-24c0-13.2,10.7-24,24-24c13.2,0,24,10.7,24,24C146.9,43.4,136.2,54.1,123,54.2z
			 M123,14.5c-8.7,0-15.7,7.1-15.7,15.7c0,8.7,7.1,15.7,15.7,15.7c8.7,0,15.7-7.1,15.7-15.7C138.7,21.5,131.7,14.5,123,14.5
			C123,14.5,123,14.5,123,14.5L123,14.5z"/>
		<path class="st5" d="M222.5,169.6c-2.3,0-4.1-1.8-4.1-4.1v-52.6c0-2.3,1.8-4.1,4.1-4.1s4.1,1.8,4.1,4.1v52.6
			C226.6,167.8,224.7,169.6,222.5,169.6z"/>
		<path class="st5" d="M25,169.7c-2.3,0-4.1-1.8-4.1-4.1V113c0-2.3,1.8-4.1,4.1-4.1s4.1,1.8,4.1,4.1v52.6
			C29.1,167.8,27.3,169.7,25,169.7C25,169.7,25,169.7,25,169.7z"/>
		<path class="st5" d="M123,92.9c-2.3,0-4.1-1.8-4.1-4.1V53.2c0-2.3,1.8-4.1,4.1-4.1s4.1,1.8,4.1,4.1v35.5
			C127.1,91.1,125.2,92.9,123,92.9z"/>
		<path class="st4" d="M145.7,174.8h-45.5c-2.3,0-4.1-1.8-4.1-4.1c0-2.3,1.8-4.1,4.1-4.1h45.5c2.3,0,4.1,1.8,4.1,4.1
			C149.8,172.9,147.9,174.8,145.7,174.8L145.7,174.8z"/>
		<path class="st5" d="M87.2,146.4c-9.5,0-17.3-7.7-17.3-17.3c0-9.5,7.7-17.3,17.3-17.3c9.5,0,17.3,7.7,17.3,17.3
			C104.5,138.7,96.8,146.4,87.2,146.4z M87.2,120.1c-5,0-9.1,4.1-9.1,9.1c0,5,4.1,9.1,9.1,9.1c5,0,9.1-4.1,9.1-9.1
			C96.3,124.1,92.3,120.1,87.2,120.1L87.2,120.1z"/>
		<path class="st5" d="M123.3,54.2c-13.2,0-24-10.7-24-24c0-13.2,10.7-24,24-24c13.2,0,24,10.7,24,24
			C147.2,43.4,136.5,54.1,123.3,54.2z M123.3,14.5c-8.7,0-15.7,7.1-15.7,15.7c0,8.7,7.1,15.7,15.7,15.7c8.7,0,15.7-7.1,15.7-15.7
			C139,21.5,132,14.5,123.3,14.5C123.3,14.5,123.3,14.5,123.3,14.5L123.3,14.5z"/>
		<path class="st5" d="M25,169.7c-2.3,0-4.1-1.8-4.1-4.1V113c0-2.3,1.8-4.1,4.1-4.1s4.1,1.8,4.1,4.1v52.6
			C29.1,167.8,27.3,169.7,25,169.7C25,169.7,25,169.7,25,169.7z"/>
	</g>
	<rect class="st6" width="250" height="250"/>
</g>
</svg>
