<?xml version="1.0" encoding="utf-8"?>
<!-- Generator: Adobe Illustrator 26.0.1, SVG Export Plug-In . SVG Version: 6.00 Build 0)  -->
<svg version="1.1" xmlns="http://www.w3.org/2000/svg" xmlns:xlink="http://www.w3.org/1999/xlink" x="0px" y="0px"
	 viewBox="0 0 250 250" style="enable-background:new 0 0 250 250;" xml:space="preserve">
<style type="text/css">
	.st0{display:none;}
	.st1{display:inline;fill:#7C7C7C;}
	.st2{display:inline;}
	.st3{fill:#E74225;}
	.st4{fill:#FFFFFF;}
	.st5{display:inline;fill:none;}
	.st6{fill:#FFC752;}
	.st7{fill:#41E1F1;}
	.st8{fill:none;}
	.st9{fill:none;stroke:#FFC752;stroke-width:8.9736;stroke-linecap:round;stroke-linejoin:round;}
	.st10{fill:#EA2588;}
	.st11{fill:none;stroke:#FFC752;stroke-width:15.0353;stroke-linecap:round;stroke-linejoin:round;}
	.st12{fill:none;stroke:#E74225;stroke-width:7.8735;stroke-miterlimit:10;}
	.st13{fill:#E74225;stroke:#E74225;stroke-width:5.3091;stroke-miterlimit:10;}
	.st14{fill:none;stroke:#EA2588;stroke-width:10.3112;stroke-miterlimit:10;}
	.st15{fill:#F5FCFF;}
	.st16{fill:none;stroke:#EA2588;stroke-width:9.9556;stroke-miterlimit:10;}
	.st17{display:inline;fill:#41E1F1;}
	.st18{display:inline;fill:#FFFFFF;}
	.st19{display:inline;fill:none;stroke:#41E1F1;stroke-width:22;stroke-miterlimit:10;}
	.st20{fill:none;stroke:#41E1F1;stroke-width:8.0249;stroke-miterlimit:10;}
	.st21{fill:#41E1F1;stroke:#41E1F1;stroke-width:0.4119;stroke-miterlimit:10;}
	.st22{fill:none;stroke:#41E1F1;stroke-width:9.8857;stroke-miterlimit:10;}
	.st23{fill:none;stroke:#FFFFFF;stroke-width:8.9166;stroke-linecap:round;stroke-linejoin:round;}
	.st24{fill:none;stroke:#FFFFFF;stroke-width:10.5817;stroke-linecap:round;stroke-linejoin:round;}
	.st25{fill:none;stroke:#E74225;stroke-width:17.6361;stroke-linecap:round;stroke-linejoin:round;}
</style>
<g id="Guide" class="st0">
	<rect x="2.5" y="2.5" class="st1" width="245" height="245"/>
</g>
<g id="Astronaut" class="st0">
	<g class="st2">
		<path class="st3" d="M215.9,239.8H49.3c-7.5,0-13.5-6-13.5-13.5l0,0v-74.1c0-7.5,6-13.5,13.5-13.5l0,0h15.2c3,0,5.5,2.5,5.5,5.5
			c0,3-2.5,5.5-5.5,5.5H49.3c-1.4,0-2.5,1.1-2.5,2.5v74.1c0,1.4,1.1,2.5,2.5,2.5h166.7c1.4,0,2.5-1.1,2.5-2.5v-74.1
			c0-1.4-1.1-2.5-2.5-2.5h-15.2c-3,0-5.5-2.5-5.5-5.5c0-3,2.5-5.5,5.5-5.5h15.2c7.5,0,13.5,6,13.5,13.5l0,0v74.1
			C229.4,233.8,223.4,239.8,215.9,239.8z"/>
		<path class="st3" d="M181.4,170.4c-3,0-5.5-2.5-5.5-5.5c0-1.7,0.8-3.3,2.2-4.4c33.7-25.1,40.6-72.8,15.5-106.5
			c-25.1-33.7-72.8-40.6-106.5-15.5C53.5,63.6,46.5,111.3,71.7,145c4.1,5.4,8.8,10.3,14.2,14.5c2.4,1.9,2.8,5.3,0.9,7.7
			c-1.9,2.4-5.3,2.8-7.7,0.9l0,0C41.2,138.5,34.5,83.8,64.1,45.9C93.7,8.1,148.4,1.4,186.3,31c37.9,29.6,44.6,84.3,14.9,122.2
			c-4.8,6.1-10.3,11.5-16.5,16.1C183.8,170,182.6,170.4,181.4,170.4z"/>
		<path class="st3" d="M178.4,191.9h-93c-9,0-16.2-7.3-16.2-16.3c0-9,7.3-16.2,16.2-16.2h93c9,0,16.2,7.3,16.2,16.3
			C194.6,184.6,187.4,191.8,178.4,191.9L178.4,191.9z M85.4,170.3c-2.9,0-5.2,2.3-5.2,5.2s2.3,5.2,5.2,5.2h93c2.9,0,5.2-2.3,5.2-5.2
			s-2.3-5.2-5.2-5.2H85.4z"/>
		<path class="st3" d="M132.6,153.5c-29.6,0-53.6-24-53.6-53.6s24-53.6,53.6-53.6s53.6,24,53.6,53.6
			C186.2,129.5,162.2,153.5,132.6,153.5z M132.6,55.4c-24.5,0-44.4,19.9-44.4,44.4s19.9,44.4,44.4,44.4S177,124.4,177,99.9
			C177,75.3,157.1,55.5,132.6,55.4z"/>
		<path class="st3" d="M197.4,239.8h-131c-3,0-5.5-2.5-5.5-5.5v-48c0-3,2.5-5.5,5.5-5.5h131c3,0,5.5,2.5,5.5,5.5v48
			C202.9,237.4,200.4,239.8,197.4,239.8z M71.9,228.8h120v-36.9h-120V228.8z"/>
		<path class="st4" d="M158.6,104h-0.4c-3-0.2-5.3-2.8-5.1-5.9c0.2-4.3-1.1-8.5-3.8-11.9c-2.6-3.1-6.2-5.2-10.2-5.9
			c-3-0.5-5-3.4-4.5-6.4c0.5-3,3.4-5,6.4-4.5l0,0c14.1,2.3,24.1,15.1,23.1,29.4C163.9,101.8,161.5,104,158.6,104z"/>
		<path class="st3" d="M239.7,25.8c-4.3,0-7.8-3.5-7.8-7.8c0-4.3,3.5-7.8,7.8-7.8c4.3,0,7.8,3.5,7.8,7.8l0,0
			C247.5,22.3,244,25.8,239.7,25.8z M239.7,14.8c-1.7,0-3.1,1.4-3.1,3.1c0,1.7,1.4,3.1,3.1,3.1c1.7,0,3.1-1.4,3.1-3.1
			C242.7,16.2,241.4,14.8,239.7,14.8z"/>
		<path class="st3" d="M10.3,124.5c-4.3,0-7.8-3.5-7.8-7.8c0-4.3,3.5-7.8,7.8-7.8c4.3,0,7.8,3.5,7.8,7.8l0,0
			C18.2,120.9,14.7,124.5,10.3,124.5z M10.3,113.4c-1.7,0-3.1,1.4-3.1,3.1c0,1.7,1.4,3.1,3.1,3.1s3.1-1.4,3.1-3.1
			C13.4,114.8,12,113.5,10.3,113.4L10.3,113.4z"/>
	</g>
	<rect class="st5" width="250" height="250"/>
</g>
<g id="Constellation" class="st0">
	<g class="st2">
		<path class="st6" d="M102.1,121.7c-2,0-3.7-1.4-4.2-3.4L85.8,62.7L47.3,79.6c-2.2,0.9-4.7,0-5.6-2.2c-0.9-2.2,0-4.7,2.2-5.6l0,0
			l43.3-18.9c2.2-0.9,4.7,0,5.6,2.2c0.1,0.3,0.2,0.5,0.3,0.8l12.4,56.9l19.9-2.1c2.4-0.3,4.5,1.5,4.7,3.8c0.3,2.4-1.5,4.5-3.8,4.7
			l-23.7,2.6H102.1z"/>
		<path class="st6" d="M150.6,114.8c-2.4,0-4.3-1.9-4.3-4.3c0-1.9,1.3-3.6,3.1-4.1l68.3-19.9c2.3-0.7,4.6,0.6,5.3,2.9
			c0.7,2.3-0.6,4.6-2.9,5.3l-68.3,19.9C151.4,114.7,151,114.8,150.6,114.8z"/>
		<path class="st6" d="M215.6,179.9h-0.7c-2.3-0.4-3.9-2.6-3.5-4.9c0,0,0,0,0,0l12.9-76.3c0.4-2.4,2.6-4,5-3.6s4,2.6,3.6,5
			l-12.9,76.2C219.6,178.5,217.7,180,215.6,179.9z"/>
		<path class="st6" d="M197.3,188.5c-1.2,0-2.3-0.5-3.1-1.4l-54.3-58.9c-1.8-1.6-1.9-4.3-0.4-6c1.6-1.8,4.3-1.9,6-0.4
			c0.2,0.2,0.5,0.5,0.7,0.7l54.3,58.9c1.6,1.7,1.5,4.4-0.2,6c-0.8,0.7-1.8,1.1-2.9,1.1L197.3,188.5z"/>
		<path class="st6" d="M25.2,100.8c-12.6,0-22.7-10.3-22.7-22.9c0-12.6,10.3-22.7,22.9-22.7c12.6,0,22.7,10.3,22.7,22.9
			c0,5.3-1.9,10.4-5.2,14.4l0,0c-3.9,4.7-9.5,7.6-15.5,8.1C26.6,100.7,25.9,100.8,25.2,100.8z M25.2,63.5h-1.3
			c-7.8,0.9-13.5,7.9-12.6,15.7C12.1,87,19.2,92.7,27,91.8c3.6-0.4,6.9-2.1,9.2-4.8l0,0c5.1-6,4.5-14.9-1.5-20.1
			C32,64.6,28.7,63.4,25.2,63.5L25.2,63.5z"/>
		<path class="st6" d="M231.3,103.2c-8.9-0.1-16-7.3-16-16.2c0.1-8.9,7.3-16,16.2-16c8.9,0.1,16,7.3,16,16.2c0,6.7-4.2,12.7-10.5,15
			C235.2,102.9,233.2,103.2,231.3,103.2z M231.3,79.6c-4.2,0-7.5,3.3-7.6,7.5c0,4.2,3.3,7.5,7.5,7.6c0.9,0,1.8-0.2,2.7-0.5l0,0
			c3.9-1.5,5.8-5.8,4.4-9.7C237.2,81.6,234.4,79.6,231.3,79.6z"/>
		<path class="st6" d="M209.7,204c-8.9,0-16.1-7.1-16.1-16c0-8.9,7.1-16.1,16-16.1c8.9,0,16.1,7.1,16.1,16c0,6.7-4.2,12.8-10.5,15.1
			l0,0C213.5,203.7,211.6,204,209.7,204z M213.8,199 M209.7,180.4c-4.2,0-7.5,3.4-7.5,7.5c0,4.2,3.4,7.5,7.5,7.5
			c4.2,0,7.5-3.4,7.5-7.5c0-0.9-0.2-1.8-0.5-2.6C215.7,182.4,212.9,180.4,209.7,180.4z"/>
		<path class="st4" d="M139.4,130.1c-8.9-0.1-16-7.3-15.9-16.1s7.3-16,16.1-15.9s16,7.3,15.9,16.1c0,3.7-1.4,7.4-3.8,10.2
			C148.7,128.1,144.1,130.1,139.4,130.1z M139.4,106.6h-0.7c-4.1,0.2-7.3,3.7-7.1,7.8c0.2,4.1,3.7,7.3,7.8,7.1
			c4.1-0.2,7.3-3.7,7.1-7.8C146.3,109.8,143.2,106.7,139.4,106.6z"/>
		<path class="st6" d="M126.9,204.6c18.3,0,18.4-28.5,0-28.5S108.5,204.6,126.9,204.6z"/>
		<path class="st6" d="M100.6,216.4c9.2,0,9.2-14.2,0-14.2S91.4,216.4,100.6,216.4z"/>
		<path class="st6" d="M138.9,47.8c9.2,0,9.2-14.2,0-14.2S129.7,47.8,138.9,47.8z"/>
	</g>
	<rect class="st5" width="250" height="250"/>
</g>
<g id="Droid" class="st0">
	<g class="st2">
		<path class="st6" d="M87.2,146.4c-9.5,0-17.3-7.7-17.3-17.3c0-9.5,7.7-17.3,17.3-17.3c9.5,0,17.3,7.7,17.3,17.3
			C104.5,138.7,96.8,146.4,87.2,146.4z M87.2,120.1c-5,0-9.1,4.1-9.1,9.1c0,5,4.1,9.1,9.1,9.1c5,0,9.1-4.1,9.1-9.1
			C96.3,124.1,92.3,120.1,87.2,120.1L87.2,120.1z"/>
		<path class="st6" d="M156,146.4c-9.5,0-17.3-7.7-17.3-17.3c0-9.5,7.7-17.3,17.3-17.3c9.5,0,17.3,7.7,17.3,17.3
			C173.2,138.7,165.5,146.4,156,146.4z M156,120.1c-5,0-9.1,4.1-9.1,9.1c0,5,4.1,9.1,9.1,9.1c5,0,9.1-4.1,9.1-9.1
			C165,124.1,161,120.1,156,120.1z"/>
		<path class="st6" d="M222.5,16.2c8.8,0,8.8-13.7,0-13.7S213.7,16.2,222.5,16.2z"/>
		<path class="st6" d="M61.6,247.5c2.8-0.2,5-2.7,4.8-5.5c-0.2-2.5-2.2-4.6-4.8-4.8c-2.8,0.2-5,2.7-4.8,5.5
			C57,245.3,59,247.3,61.6,247.5z"/>
		<path class="st6" d="M176.4,200H71.1c-16.9,0-30.5-13.7-30.5-30.5v-54.2c0-16.9,13.7-30.5,30.5-30.5h105.3
			c16.9,0,30.5,13.7,30.5,30.5v54.2C206.9,186.3,193.2,199.9,176.4,200z M71.1,92.9c-12.3,0-22.3,10-22.3,22.3v54.2
			c0,12.3,10,22.3,22.3,22.3h105.3c12.3,0,22.3-10,22.3-22.3v-54.2c0-12.3-10-22.3-22.3-22.3H71.1z"/>
		<path class="st6" d="M123,54.2c-13.2,0-24-10.7-24-24c0-13.2,10.7-24,24-24c13.2,0,24,10.7,24,24C146.9,43.4,136.2,54.1,123,54.2z
			 M123,14.5c-8.7,0-15.7,7.1-15.7,15.7c0,8.7,7.1,15.7,15.7,15.7c8.7,0,15.7-7.1,15.7-15.7C138.7,21.5,131.7,14.5,123,14.5
			C123,14.5,123,14.5,123,14.5L123,14.5z"/>
		<path class="st6" d="M222.5,169.6c-2.3,0-4.1-1.8-4.1-4.1v-52.6c0-2.3,1.8-4.1,4.1-4.1s4.1,1.8,4.1,4.1v52.6
			C226.6,167.8,224.7,169.6,222.5,169.6z"/>
		<path class="st6" d="M25,169.7c-2.3,0-4.1-1.8-4.1-4.1V113c0-2.3,1.8-4.1,4.1-4.1s4.1,1.8,4.1,4.1v52.6
			C29.1,167.8,27.3,169.7,25,169.7C25,169.7,25,169.7,25,169.7z"/>
		<path class="st6" d="M123,92.9c-2.3,0-4.1-1.8-4.1-4.1V53.2c0-2.3,1.8-4.1,4.1-4.1s4.1,1.8,4.1,4.1v35.5
			C127.1,91.1,125.2,92.9,123,92.9z"/>
		<path class="st4" d="M145.7,174.8h-45.5c-2.3,0-4.1-1.8-4.1-4.1c0-2.3,1.8-4.1,4.1-4.1h45.5c2.3,0,4.1,1.8,4.1,4.1
			C149.8,172.9,147.9,174.8,145.7,174.8L145.7,174.8z"/>
		<path class="st6" d="M87.2,146.4c-9.5,0-17.3-7.7-17.3-17.3c0-9.5,7.7-17.3,17.3-17.3c9.5,0,17.3,7.7,17.3,17.3
			C104.5,138.7,96.8,146.4,87.2,146.4z M87.2,120.1c-5,0-9.1,4.1-9.1,9.1c0,5,4.1,9.1,9.1,9.1c5,0,9.1-4.1,9.1-9.1
			C96.3,124.1,92.3,120.1,87.2,120.1L87.2,120.1z"/>
		<path class="st6" d="M123.3,54.2c-13.2,0-24-10.7-24-24c0-13.2,10.7-24,24-24c13.2,0,24,10.7,24,24
			C147.2,43.4,136.5,54.1,123.3,54.2z M123.3,14.5c-8.7,0-15.7,7.1-15.7,15.7c0,8.7,7.1,15.7,15.7,15.7c8.7,0,15.7-7.1,15.7-15.7
			C139,21.5,132,14.5,123.3,14.5C123.3,14.5,123.3,14.5,123.3,14.5L123.3,14.5z"/>
		<path class="st6" d="M25,169.7c-2.3,0-4.1-1.8-4.1-4.1V113c0-2.3,1.8-4.1,4.1-4.1s4.1,1.8,4.1,4.1v52.6
			C29.1,167.8,27.3,169.7,25,169.7C25,169.7,25,169.7,25,169.7z"/>
	</g>
	<rect class="st5" width="250" height="250"/>
</g>
<g id="Earth" class="st0">
	<g class="st2">
		<path class="st7" d="M228.1,97.5c9.6,0,9.6-14.8,0-14.8S218.5,97.5,228.1,97.5z"/>
		<path class="st7" d="M34.8,73.7c3.1-0.2,5.4-2.9,5.2-6c-0.2-2.8-2.4-5-5.2-5.2c-3.1,0.2-5.4,2.9-5.2,6
			C29.9,71.3,32.1,73.5,34.8,73.7z"/>
		<path class="st7" d="M159.2,239.8c3.1-0.2,5.4-2.9,5.2-6c-0.2-2.8-2.4-5-5.2-5.2c-3.1,0.2-5.4,2.9-5.2,6
			C154.2,237.4,156.4,239.6,159.2,239.8z"/>
		<path class="st7" d="M217.8,69.5c-16.4,0-29.7-13.3-29.7-29.7s13.3-29.7,29.7-29.7s29.7,13.3,29.7,29.7S234.2,69.5,217.8,69.5z
			 M217.8,19.1c-11.5,0-20.8,9.3-20.8,20.8s9.3,20.8,20.8,20.8s20.8-9.3,20.8-20.8C238.6,28.4,229.3,19.1,217.8,19.1L217.8,19.1z"/>
		<g>
			<path class="st8" d="M188.2,130.9c-2-0.4-4.1-0.7-6.2-0.7c-3,0-9.1-0.2-11.6,2.3c-1.2,1.2-1.1,3-0.6,8.6c0.2,2.3,0.4,4.9,0.6,8
				c0.3,7.8,0.9,24.1-7.5,37.3c-8.3,13.2-16.5,15.4-22.4,15.4h-0.8c-6.7-0.4-12.8-3.8-16.6-9.3c-2.3-3.4-3.5-7.4-3.4-11.5
				c0.1-2,0.6-4.1,1.4-5.9c0-0.3,0.3-0.7,0.4-1c1.2-5.2,0-10.8-3.3-15c-1.4-1.6-3.2-2.7-5.3-3.4c-3.4-1.2-6.5-3.2-8.9-5.9
				c-6.6-8-8.1-19.2-3.8-28.6c3.7-7.1,10.3-12.2,18.1-14.1c6.3-1.7,12.9-1.9,19.3-0.7c4.3,0.6,6.9,0.8,7.7-0.2
				c0.4-0.6,0.6-1.4,0.6-2.1c0.2-1.8-0.6-3-3-5.8c-2.4-2.8-4.4-5.9-5.9-9.2c-3.4-6.8-3.8-14.8-1-21.9c2.1-4.7,5.7-8.5,10.2-10.9
				c1.9-1.1,4.3-0.6,5.7,1.1c0.4-0.1,0.8-0.3,1.2-0.4c-8.9-3.4-18.6-5.3-28.8-5.3v0c-12.2,0-23.7,2.7-34.1,7.6
				c8,8,5.6,19.5,4.6,20.4c-1.4,1.1-11.2,11.2-9.7,17.4c1.4,6.3-1.7,12.9-10,13.7c-8.3,0.9-16,27.5-15.7,34c0.3,6.6-3.1,10-9.6,13.7
				c-0.4,0.3-0.8,0.6-1.1,0.9c11.2,30.9,40.8,53.1,75.6,53.1c44.4,0,80.4-36,80.4-80.4c0-1.3,0-2.7-0.1-4c-1.7,1.2-3.6,2.1-5.7,2.8
				C195.5,131.8,191.7,131.8,188.2,130.9z"/>
			<path class="st8" d="M171.3,66.7c-1.8,3.1-5.4,5.6-5.6,8.2c-0.3,5.1,8.9,6.9,13.2,6.9c2.3,0,3.3-2.5,3.8-5.2
				C179.1,72.9,175.3,69.6,171.3,66.7z"/>
			<path class="st7" d="M204,118c1.3-0.1,2.7,0.4,3.6,1.4c1.6,1.7,1.6,4.4-0.1,6.1c-0.9,0.9-1.9,1.7-2.9,2.5c0.1,1.3,0.1,2.7,0.1,4
				c0,44.4-36,80.4-80.4,80.4c-34.8,0-64.5-22.1-75.6-53.1c-3,3.5,0.3,11.1-2.2,16.5c15.3,27.1,44.4,45.4,77.8,45.4
				c49.3,0,89.3-40,89.3-89.3c0-7.8-1-15.3-2.9-22.5l-2,0.1C208.8,109.5,207,113.5,204,118z"/>
			<path class="st7" d="M44.9,104c0.1-1.9-0.1-6.4-1.7-9.4c-2.2,4.8-4,9.9-5.4,15.2C42.9,108,44.8,105.6,44.9,104z"/>
			<path class="st7" d="M124.4,51.5L124.4,51.5c10.2,0,19.9,1.9,28.8,5.4c6.4-1.8,12.8-1.3,12.8-1.3c6.9,4.6,7,8.1,5.3,11.1
				c4.1,2.9,7.9,6.2,11.3,9.9c0.4-2.3,0.4-4.9,0.5-6.5c0.1-1,0.7-2.3,1.8-3.8c-15.9-14.7-37.2-23.6-60.5-23.6c-15.6,0-30.3,4-43,11
				c3.9,1.4,6.8,3.3,9,5.4C100.7,54.2,112.2,51.5,124.4,51.5z"/>
			<path class="st7" d="M178.8,81.8c-4.3,0-13.4-1.7-13.2-6.9c0.1-2.6,3.8-5.2,5.6-8.2c-5.5-4-11.6-7.3-18.1-9.8
				c-0.4,0.1-0.8,0.2-1.2,0.4c-1.4-1.7-3.7-2.2-5.7-1.1c-4.5,2.4-8.1,6.3-10.2,10.9c-2.8,7.1-2.4,15.1,1,21.9
				c1.5,3.3,3.5,6.4,5.9,9.2c2.4,2.8,3.1,4,3,5.8c0,0.7-0.2,1.5-0.6,2.1c-0.8,1-3.4,0.7-7.7,0.2c-6.4-1.2-13-1-19.3,0.7
				c-7.8,1.9-14.4,7-18.1,14.1c-4.3,9.5-2.9,20.6,3.8,28.6c2.4,2.7,5.5,4.7,8.9,5.9c2,0.7,3.8,1.8,5.3,3.4c3.3,4.2,4.6,9.7,3.3,15
				c-0.1,0.3-0.4,0.7-0.4,1c-0.8,1.9-1.3,3.9-1.4,5.9c-0.1,4.1,1,8.1,3.4,11.5c3.8,5.5,9.9,8.9,16.6,9.3h0.8
				c5.9,0,14.1-2.3,22.4-15.4c8.3-13.2,7.7-29.4,7.5-37.3c-0.1-3.1-0.4-5.7-0.6-8c-0.5-5.6-0.6-7.4,0.6-8.6
				c2.5-2.5,8.6-2.3,11.6-2.3c2.1,0.1,4.2,0.3,6.2,0.7c3.6,0.9,7.3,0.9,10.9-0.2c2-0.7,3.9-1.6,5.7-2.8c-1-19.9-9.2-37.9-22.1-51.4
				C182.1,79.3,181.2,81.8,178.8,81.8z"/>
			<path class="st7" d="M184.9,66.2c-1.1,1.5-1.7,2.8-1.8,3.8c-0.1,1.6-0.1,4.1-0.5,6.5c12.9,13.5,21.1,31.5,22.1,51.4
				c1-0.7,2-1.5,2.9-2.5c1.6-1.7,1.6-4.4,0.1-6.1c-1-1.1-2.3-1.5-3.6-1.4c2.9-4.5,4.8-8.4,4.8-8.4l2-0.1
				C206.5,92.6,197.3,77.7,184.9,66.2z"/>
			<path class="st7" d="M166,55.6c0,0-6.4-0.5-12.8,1.3c6.5,2.5,12.5,5.8,18.1,9.8C173,63.7,172.8,60.2,166,55.6z"/>
			<path class="st7" d="M49.9,158.4c6.5-3.7,9.8-7.2,9.6-13.7c-0.3-6.6,7.4-33.2,15.7-34c8.3-0.9,11.4-7.4,10-13.7
				c-1.4-6.3,8.3-16.3,9.7-17.4c1.1-0.9,3.4-12.4-4.6-20.4C62.9,71.9,44,99.7,44,131.9c0,9.6,1.7,18.8,4.8,27.4
				C49,158.9,49.4,158.6,49.9,158.4z"/>
			<path class="st7" d="M48.7,159.3c-3.1-8.5-4.8-17.7-4.8-27.4c0-32.2,19-60,46.4-72.9c-2.2-2.2-5.1-4.1-9-5.4
				c-16.7,9.2-30.1,23.6-38.1,40.9c1.6,3.1,1.8,7.6,1.7,9.4c-0.1,1.5-2,4-7.1,5.8c-1.8,7.1-2.8,14.5-2.8,22.1
				c0,15.9,4.2,30.9,11.5,43.9C49.1,170.4,45.7,162.8,48.7,159.3z"/>
		</g>
		<path class="st4" d="M70,152c-1.4,0-2.7-0.6-3.5-1.8c-3-4-5-8.6-5.8-13.6c-0.8-6,0.2-12.2,3-17.6c1.1-2.2,3.8-3.1,6-2
			c2.2,1.1,3.1,3.8,2,6l0,0c-1.9,3.8-2.6,8.1-2,12.3c0.5,3.4,1.9,6.7,4,9.4c1.5,2,1.1,4.7-0.8,6.2c-0.8,0.6-1.7,0.9-2.7,0.9L70,152z
			"/>
		<path class="st7" d="M7.7,98.8c3.1-0.2,5.4-2.9,5.2-6c-0.2-2.8-2.4-5-5.2-5.2c-3.1,0.2-5.4,2.9-5.2,6C2.7,96.4,4.9,98.6,7.7,98.8z
			"/>
	</g>
	<rect class="st5" width="250" height="250"/>
</g>
<g id="Flag">
	<g>
		<path class="st6" d="M213.4,213.2c-2.3,0-4.2-1.7-4.5-4c-5.1-46.4-46.9-79.9-93.3-74.8c-39,4.3-69.9,34.9-74.6,73.8
			c-0.3,2.5-2.5,4.2-5,3.9c-2.5-0.3-4.2-2.5-3.9-5c6.3-51.3,52.9-87.8,104.2-81.5c43.1,5.3,76.9,39.4,81.6,82.6c0.3,2.5-1.5,4.7-4,5
			c0,0,0,0,0,0L213.4,213.2z"/>
		<line class="st9" x1="182" y1="208.8" x2="243" y2="208.8"/>
		<line class="st9" x1="7" y1="208.8" x2="155.1" y2="208.8"/>
		<path class="st6" d="M125,134c-2.5,0-4.5-2-4.5-4.5V83.6l0,0V41.2c0-2.5,2-4.5,4.5-4.5h53.8c2.5,0,4.5,2,4.5,4.5v41.1
			c0,2.4-1.9,4.4-4.4,4.5L129.6,88v41.6C129.6,132.1,127.6,134.1,125,134C125.1,134,125,134,125,134z M129.5,45.7V79l44.9-1V45.7
			L129.5,45.7z"/>
		<path class="st6" d="M76,190.8c9.6,0,9.6-15,0-15S66.4,190.8,76,190.8z"/>
		<path class="st6" d="M182,189.7c2.1,0,3.7-1.7,3.7-3.7c0-2.1-1.7-3.7-3.7-3.7c-2.1,0-3.7,1.7-3.7,3.7
			C178.3,188,180,189.7,182,189.7z"/>
		<path class="st6" d="M78.7,110.4c19.2,0,19.3-29.9,0-29.9S59.4,110.4,78.7,110.4z"/>
		<path class="st6" d="M56.5,88.2c9.6,0,9.6-15,0-15S46.9,88.2,56.5,88.2z"/>
		<path class="st4" d="M161.7,173.2c-1.4,0-2.7-0.7-3.6-1.8c-4.3-5.7-10.1-10.2-16.8-12.7c-7.7-2.9-16.1-3.2-23.9-0.9
			c-2.4,0.7-4.9-0.7-5.6-3.1c-0.7-2.4,0.7-4.9,3.1-5.6c9.8-2.8,20.2-2.4,29.7,1.1c8.3,3.2,15.5,8.6,20.8,15.7c1.5,2,1.1,4.8-0.9,6.3
			C163.7,172.9,162.8,173.2,161.7,173.2L161.7,173.2z"/>
	</g>
	<rect class="st8" width="250" height="250"/>
</g>
<g id="Meteor_x5F_2" class="st0">
	<rect class="st5" width="250" height="250"/>
	<g class="st2">
		<path class="st10" d="M90.4,77.5c-1.4,0-2.8-0.6-3.8-1.6L66.7,55.5c-2-2.2-1.8-5.5,0.3-7.5c2.1-1.9,5.2-1.8,7.2,0.1l19.9,20.4
			c2,2.1,2,5.4-0.1,7.5C93.1,77,91.8,77.6,90.4,77.5L90.4,77.5z"/>
		<path class="st10" d="M132.2,157c-1.4,0-2.8-0.6-3.8-1.6L22.2,45.6c-2-2.1-2-5.5,0.1-7.5c2.1-2,5.5-2,7.5,0.1L136,148
			c2,2.1,2,5.5-0.1,7.5C134.9,156.5,133.6,157,132.2,157L132.2,157z"/>
		<path class="st10" d="M93.6,157c-1.4,0-2.8-0.6-3.8-1.6L32.1,96.1c-2.1-2-2.2-5.4-0.1-7.5s5.4-2.2,7.5-0.1
			c0.1,0.1,0.2,0.2,0.2,0.2l57.7,59.3c2,2.1,2,5.4-0.1,7.5C96.3,156.5,95,157.1,93.6,157L93.6,157z"/>
		<path class="st10" d="M185.8,247.5c-24,0-43.5-19.5-43.4-43.6c0-5.4,1-10.8,3-15.8l0,0c8.8-22.4,34-33.4,56.4-24.6
			c22.4,8.8,33.4,34,24.6,56.4C219.8,236.6,203.7,247.5,185.8,247.5z M155.2,192c-6.6,16.9,1.7,36,18.6,42.6
			c16.9,6.6,36-1.7,42.6-18.6c6.6-16.9-1.7-36-18.6-42.6c0,0,0,0,0,0c-16.8-6.7-35.8,1.4-42.5,18.2
			C155.3,191.7,155.2,191.8,155.2,192z"/>
		<path class="st4" d="M186.5,228.5c-2.8-0.9-4.4-3.8-3.5-6.6c0.6-2.1,2.5-3.6,4.7-3.7c7.5-0.5,13.2-7.1,12.7-14.6
			c0-0.4-0.1-0.8-0.1-1.2c-0.6-2.9,1.2-5.7,4.1-6.3c2.9-0.6,5.7,1.2,6.3,4.1c0,0.2,0.1,0.3,0.1,0.5c2.1,13.2-6.8,25.7-20.1,27.8
			c-0.7,0.1-1.4,0.2-2.1,0.2C187.8,228.8,187.1,228.7,186.5,228.5z"/>
		<path class="st10" d="M108.7,235.5c22.7,0,22.8-35.3,0-35.3S85.9,235.5,108.7,235.5z"/>
		<path class="st10" d="M209.5,129.4c11.4,0,11.4-17.6,0-17.6C198.2,111.7,198.2,129.4,209.5,129.4z"/>
		<path class="st10" d="M107.6,15.7c3.7-0.3,6.4-3.4,6.1-7.1c-0.2-3.3-2.9-5.9-6.1-6.1c-3.7,0.3-6.4,3.4-6.1,7.1
			C101.7,12.9,104.3,15.5,107.6,15.7z"/>
		<path class="st10" d="M125.6,191.4c-1.4,0-2.8-0.6-3.8-1.6l-15.3-15.7c-2-2.2-1.8-5.5,0.3-7.5c2.1-1.9,5.2-1.8,7.2,0.1l15.3,15.7
			c2,2.1,2,5.4-0.1,7.5C128.3,190.9,127,191.5,125.6,191.4L125.6,191.4z"/>
		<path class="st10" d="M162.4,151.6c-1.4,0-2.8-0.6-3.8-1.6l-52.1-53.6c-2.1-2-2.2-5.4-0.1-7.5s5.4-2.2,7.5-0.1
			c0.1,0.1,0.2,0.2,0.2,0.2l52.1,53.6c2,2.1,2,5.4-0.1,7.5C165.1,151.1,163.8,151.6,162.4,151.6L162.4,151.6z"/>
	</g>
</g>
<g id="Meteor" class="st0">
	<rect class="st5" width="250" height="250"/>
	<g class="st2">
		<path class="st6" d="M74.9,218.6c-27-0.1-48.9-22-48.8-49.1c0-10.8,3.6-21.3,10.3-29.8L126,50c1.5-2,4.4-2.3,6.3-0.8
			c2,1.5,2.3,4.4,0.8,6.3l-89.6,89.7c-14.1,16.9-11.9,42,4.9,56.2c16.9,14.1,38.4,10.6,56.2-4.9c0.6-0.7,57.5-58.7,57.5-58.7
			c1.5-2,4.4-2.3,6.3-0.8c2,1.5,2.3,4.4,0.8,6.3l0,0l-55.7,56.4C101.8,210.5,91.8,218.6,74.9,218.6z"/>
		<path class="st6" d="M98.1,124.3c-2.5-0.4-4.2-2.7-3.8-5.1c0.1-0.9,0.6-1.8,1.3-2.5L178,34c1.8-1.8,4.6-1.8,6.4,0
			c1.8,1.8,1.8,4.6,0,6.4l0,0L102,123C101,124,99.6,124.5,98.1,124.3z"/>
		<path class="st6" d="M113.4,151.6c-2.5-0.4-4.2-2.7-3.8-5.1c0.1-0.9,0.6-1.8,1.3-2.5l60.6-60.8c1.8-1.8,4.6-1.8,6.4,0
			c1.8,1.8,1.8,4.6,0,6.4l-60.6,60.8C116.2,151.3,114.8,151.8,113.4,151.6z"/>
		<path class="st6" d="M62.7,151.5c2.1,0,3.8-1.7,3.8-3.8s-1.7-3.8-3.8-3.8s-3.8,1.7-3.8,3.8S60.6,151.5,62.7,151.5z"/>
		<path class="st4" d="M72.5,191.5c-2.5,0.2-4.7-1.7-4.8-4.2c-0.2-2.5,1.7-4.7,4.2-4.8l0,0c8.6-1.3,14.9-8.9,14.5-17.6
			c-0.1-2.5,1.8-4.6,4.3-4.7c2.5-0.1,4.6,1.8,4.7,4.3c0.7,13.4-8.9,25.1-22.1,27.1H72.5z"/>
		<circle class="st11" cx="204.3" cy="102.6" r="2.6"/>
		<path class="st6" d="M219.3,92.3c3.1-0.2,5.5-2.9,5.2-6.1c-0.2-2.8-2.4-5-5.2-5.2c-3.1,0.2-5.5,2.9-5.2,6.1
			C214.3,89.9,216.6,92.1,219.3,92.3z"/>
		<path class="st6" d="M32.7,86.1c9.7,0,9.7-15,0-15S23,86.1,32.7,86.1z"/>
		<circle class="st11" cx="176.8" cy="12.5" r="2.6"/>
		<path class="st6" d="M153.4,232.4c3.1-0.2,5.5-2.9,5.2-6.1c-0.2-2.8-2.4-5-5.2-5.2c-3.1,0.2-5.5,2.9-5.2,6.1
			C148.4,230,150.6,232.2,153.4,232.4z"/>
		<path class="st6" d="M137.1,215.8c1.3,0,2.4-1.1,2.4-2.4s-1.1-2.4-2.4-2.4s-2.4,1.1-2.4,2.4S135.8,215.8,137.1,215.8z"/>
		<path class="st6" d="M138.5,247.5c2.1,0,3.8-1.7,3.8-3.8s-1.7-3.8-3.8-3.8s-3.8,1.7-3.8,3.8S136.5,247.5,138.5,247.5z"/>
	</g>
</g>
<g id="Moon" class="st0">
	<rect class="st5" width="250" height="250"/>
	<g class="st2">
		<path class="st4" d="M113.7,96.1c-1.1,0-2.1-0.5-2.9-1.2c-7-6.9-17.9-8.1-26.2-2.9c-2,1.4-4.7,0.9-6.1-1.1c-1.4-2-0.9-4.7,1.1-6.1
			c0.1-0.1,0.3-0.2,0.4-0.3c5.2-3.2,11.2-4.7,17.2-4.5c7.3,0.4,14.2,3.4,19.5,8.4c1.7,1.7,1.8,4.4,0.1,6.2c-0.8,0.8-1.9,1.3-3,1.3
			L113.7,96.1z"/>
		<circle class="st3" cx="150.5" cy="156.3" r="18.4"/>
		<path class="st3" d="M158.3,63.2c2,0,3.6-1.6,3.6-3.6c0-2-1.6-3.6-3.6-3.6c-2,0-3.6,1.6-3.6,3.6C154.7,61.6,156.3,63.2,158.3,63.2
			z"/>
		<circle class="st12" cx="96.4" cy="94.7" r="40.8"/>
		<circle class="st13" cx="150.5" cy="156.3" r="15.5"/>
		<g>
			<path class="st8" d="M177.3,69.5c0-4.4,1.8-8.3,4.8-11.2c-16.9-16.7-40.2-27-65.8-27v0c-51.8,0-93.8,42-93.8,93.8
				c0,31.6,15.7,59.6,39.6,76.6c0.1-12.6,10.3-22.7,22.9-22.7c12.7,0,22.9,10.3,22.9,22.9c0,6.2-2.4,11.7-6.4,15.9
				c4.8,0.7,9.7,1.1,14.6,1.1c51.8,0,93.8-42,93.8-93.8c0-15.1-3.6-29.3-9.9-41.9c-2.2,1.2-4.7,1.8-7.3,1.8
				C184.2,84.9,177.3,78,177.3,69.5z"/>
			<path class="st3" d="M62.2,201.6c-24-17-39.6-44.9-39.6-76.6c0-51.8,42-93.8,93.8-93.8v0c25.7,0,48.9,10.3,65.8,27
				c2.2-2.1,5.1-3.6,8.3-4.1c-18.7-19.5-45-31.7-74.1-31.7C59.7,22.5,13.8,68.4,13.8,125c0,38.3,21,71.6,52,89.2
				c-2.3-3.6-3.7-7.9-3.7-12.4C62.2,201.7,62.2,201.7,62.2,201.6z"/>
			<path class="st3" d="M206.6,76.5c-1.4,2.8-3.7,5.1-6.5,6.6c6.3,12.6,9.9,26.9,9.9,41.9c0,51.8-42,93.8-93.8,93.8
				c-5,0-9.9-0.4-14.6-1.1c-3,3.2-7,5.5-11.4,6.5c8.3,2.2,17.1,3.4,26.1,3.4c56.6-0.1,102.4-45.9,102.5-102.5
				C218.8,107.4,214.4,90.9,206.6,76.5z"/>
			<path class="st12" d="M82.7,181.5c-12.6,0-22.8,10.2-22.9,22.7c11.5,8.2,24.9,13.8,39.5,16.1c3.9-4.1,6.4-9.7,6.4-15.9
				C105.6,191.7,95.4,181.5,82.7,181.5z"/>
			<path class="st3" d="M101.6,217.6c-14.5-2.3-28-7.9-39.5-16.1c0,0.1,0,0.1,0,0.2c0,4.6,1.4,8.9,3.7,12.4
				c7.6,4.3,15.8,7.7,24.4,9.9C94.6,223.1,98.6,220.8,101.6,217.6z"/>
			<path class="st12" d="M182.1,58.3c-2.9,2.8-4.8,6.8-4.8,11.2c0,8.5,6.9,15.5,15.5,15.5c2.7,0,5.1-0.7,7.3-1.8
				C195.5,73.9,189.4,65.5,182.1,58.3z"/>
			<path class="st3" d="M200.1,83.1c2.8-1.5,5-3.8,6.5-6.6c-4.4-8.1-9.8-15.6-16.2-22.2c-3.2,0.5-6.1,2-8.3,4.1
				C189.4,65.5,195.5,73.9,200.1,83.1z"/>
		</g>
		<path class="st3" d="M224,58.5c9.4,0,9.4-14.6,0-14.6S214.6,58.5,224,58.5z"/>
		<path class="st3" d="M242.4,64.9c3-0.2,5.3-2.8,5.1-5.9c-0.2-2.7-2.4-4.9-5.1-5.1c-3,0.2-5.3,2.8-5.1,5.9
			C237.6,62.5,239.7,64.7,242.4,64.9z"/>
		<path class="st3" d="M226,75.3c2,0,3.6-1.6,3.6-3.6c0-2-1.6-3.6-3.6-3.6c-2,0-3.6,1.6-3.6,3.6C222.4,73.7,224,75.3,226,75.3z"/>
		<path class="st3" d="M7.6,197.1c3-0.2,5.3-2.8,5.1-5.9c-0.2-2.7-2.4-4.9-5.1-5.1c-3,0.2-5.3,2.8-5.1,5.9
			C2.7,194.8,4.9,196.9,7.6,197.1z"/>
	</g>
</g>
<g id="Orbit" class="st0">
	<rect class="st5" width="250" height="250"/>
	<g class="st2">
		<path class="st10" d="M28.1,246.9c-14.3,0-25.8-11.6-25.8-25.8s11.6-25.8,25.8-25.8S54,206.8,54,221.1l0,0
			C54,235.3,42.4,246.9,28.1,246.9z M28.1,205.9c-8.4,0-15.2,6.8-15.2,15.2c0,8.4,6.8,15.2,15.2,15.2s15.2-6.8,15.2-15.2l0,0
			C43.3,212.7,36.5,205.9,28.1,205.9z"/>
		<circle class="st14" cx="128.7" cy="108.3" r="51.6"/>
		<circle class="st15" cx="102.2" cy="66.1" r="16.4"/>
		<circle class="st16" cx="128.7" cy="108.3" r="100.8"/>
		<path class="st10" d="M222.7,101.6c-13.7,0-24.8-11.1-24.8-24.8s11.1-24.8,24.8-24.8s24.8,11.1,24.8,24.8l0,0
			C247.5,90.4,236.4,101.6,222.7,101.6z M222.7,62.5c-7.8,0-14.2,6.4-14.2,14.2s6.4,14.2,14.2,14.2s14.2-6.4,14.2-14.2
			C236.9,68.9,230.5,62.5,222.7,62.5C222.7,62.5,222.7,62.5,222.7,62.5L222.7,62.5z"/>
	</g>
</g>
<g id="Rocket" class="st0">
	<rect class="st5" width="250" height="250"/>
	<g class="st2">
		<path class="st7" d="M174.4,191.4c-3.6,0-6.6-3-6.6-6.6c0-3.6,3-6.6,6.6-6.6c3.6,0,6.6,3,6.6,6.6
			C181,188.4,178.1,191.4,174.4,191.4C174.4,191.4,174.4,191.4,174.4,191.4z M174.4,182.2c-1.4,0-2.6,1.2-2.6,2.6
			c0,1.4,1.2,2.6,2.6,2.6c1.4,0,2.6-1.2,2.6-2.6l0,0C177,183.3,175.9,182.2,174.4,182.2z"/>
		<path class="st7" d="M182.7,153.8h-27.9c-2.5,0-4.6-2.1-4.6-4.6s2.1-4.6,4.6-4.6l0,0h23.3V117l-26.6-26.6c-1.9-1.7-2-4.6-0.2-6.5
			c1.7-1.9,4.6-2,6.5-0.2c0.1,0.1,0.2,0.2,0.2,0.2l27.9,27.9c0.9,0.9,1.3,2,1.3,3.3v34.1C187.3,151.8,185.2,153.8,182.7,153.8z"/>
		<path class="st7" d="M77.6,153.8H49.7c-2.5,0-4.6-2.1-4.6-4.6v-34.1c0-1.2,0.5-2.4,1.3-3.3L74.4,84c1.7-1.9,4.6-2,6.5-0.2
			c1.9,1.7,2,4.6,0.2,6.5c-0.1,0.1-0.2,0.2-0.2,0.2L54.3,117v27.6h23.3c2.5,0,4.6,2.1,4.6,4.6C82.2,151.7,80.2,153.8,77.6,153.8
			L77.6,153.8z"/>
		<path class="st4" d="M105.9,240.5c-2.5,0-4.6-2.1-4.6-4.6v-26.8c0-2.5,2.1-4.6,4.6-4.6s4.6,2.1,4.6,4.6v26.7
			c0.1,2.5-1.9,4.7-4.5,4.7C106,240.5,106,240.5,105.9,240.5z"/>
		<path class="st4" d="M124.5,247.5c-2.5,0-4.6-2.1-4.6-4.6v-26.8c0-2.5,2.1-4.6,4.6-4.6c2.5,0,4.6,2.1,4.6,4.6v26.8
			C129.1,245.4,127,247.5,124.5,247.5z"/>
		<path class="st4" d="M124.5,247.5c-2.5,0-4.6-2.1-4.6-4.6v-26.8c0-2.5,2.1-4.6,4.6-4.6c2.5,0,4.6,2.1,4.6,4.6v26.8
			C129.1,245.4,127,247.5,124.5,247.5z"/>
		<path class="st7" d="M115.2,102.4c-9.8,0-17.7-7.9-17.7-17.7c0-9.8,7.9-17.7,17.7-17.7s17.7,7.9,17.7,17.7
			C132.9,94.5,125,102.4,115.2,102.4z M115.2,76.2c-4.7,0-8.5,3.8-8.5,8.5c0,4.7,3.8,8.5,8.5,8.5c4.7,0,8.5-3.8,8.5-8.5
			C123.6,80.1,119.9,76.3,115.2,76.2L115.2,76.2z"/>
		<path class="st7" d="M128.9,189.4h-27.4c-14.9,0-27-11.1-27-24.7V73.4c0-3.7,0.9-7.4,2.7-10.7c1.3-2.2,4.1-2.9,6.3-1.6
			c2.1,1.2,2.9,3.8,1.8,5.9c-1.1,2-1.6,4.2-1.6,6.4v91.2c0,8.6,8,15.5,17.8,15.5h27.4c9.8,0,17.8-7,17.8-15.5V73.4
			c0-1.9-0.4-3.8-1.2-5.6c-1-2.3,0-5,2.3-6.1s5,0,6.1,2.3c1.3,2.9,2,6,2,9.2v91.4C156,178.3,143.8,189.4,128.9,189.4z"/>
		<path class="st7" d="M82.1,67.8c-2.5,0-4.6-2.1-4.6-4.6c0-0.8,0.2-1.6,0.6-2.3l33.1-56.1c1.3-2.2,4.1-2.9,6.3-1.6
			c0.7,0.4,1.2,0.9,1.6,1.6L152.3,61c1.3,2.2,0.5,5-1.7,6.3c-2.2,1.2-4.9,0.5-6.2-1.6l-29.2-49.4L86,65.7
			C85.2,67,83.7,67.8,82.1,67.8z"/>
		<path class="st7" d="M35,80.8c-5.1,0-9.2-4.1-9.2-9.2c0-5.1,4.1-9.2,9.2-9.2s9.2,4.1,9.2,9.2C44.2,76.6,40.1,80.8,35,80.8z
			 M35,71.6L35,71.6h4.5H35z"/>
		<path class="st7" d="M217.6,53.7c-3.6,0-6.6-3-6.6-6.6c0-3.6,3-6.6,6.6-6.6c3.6,0,6.6,3,6.6,6.6C224.2,50.7,221.3,53.7,217.6,53.7
			L217.6,53.7z M217.6,44.5c-1.4,0-2.6,1.2-2.6,2.6s1.2,2.6,2.6,2.6c1.4,0,2.6-1.2,2.6-2.6v0C220.2,45.7,219.1,44.5,217.6,44.5z"/>
		<path class="st7" d="M77.6,153.8H49.7c-2.5,0-4.6-2.1-4.6-4.6v-34.1c0-1.2,0.5-2.4,1.3-3.3L74.4,84c1.7-1.9,4.6-2,6.5-0.2
			c1.9,1.7,2,4.6,0.2,6.5c-0.1,0.1-0.2,0.2-0.2,0.2L54.3,117v27.6h23.3c2.5,0,4.6,2.1,4.6,4.6C82.2,151.7,80.2,153.8,77.6,153.8
			L77.6,153.8z"/>
	</g>
</g>
<g id="Satellite" class="st0">
	<rect class="st5" width="250" height="250"/>
	<g class="st2">
		<path class="st3" d="M219.2,116.6c-3.6,0-6.4-2.9-6.4-6.4s2.9-6.4,6.4-6.4c3.6,0,6.4,2.9,6.4,6.4S222.8,116.6,219.2,116.6
			L219.2,116.6z M219.2,108c-1.2,0-2.1,1-2.1,2.1s1,2.1,2.1,2.1c1.2,0,2.1-1,2.1-2.1S220.4,108,219.2,108z"/>
		<path class="st3" d="M207,165.9c-1.2,0-2.3-0.5-3.1-1.3l-36-37.8c-1.7-1.7-1.7-4.4,0-6.1c1.7-1.7,4.4-1.7,6.1,0
			c0.1,0.1,0.1,0.1,0.2,0.2l36,37.8c1.6,1.7,1.6,4.4-0.2,6.1C209.2,165.4,208.1,165.9,207,165.9L207,165.9z"/>
		<path class="st3" d="M98.4,218.6c-2.1,0-3.9-1.5-4.2-3.6l-8.4-53.3c-0.4-2.4,1.3-4.6,3.6-5c2.4-0.4,4.6,1.3,5,3.6l8.4,53.3
			c0.4,2.3-1.2,4.5-3.6,4.9L98.4,218.6z"/>
		<path class="st3" d="M41.1,196.2c-3.6,0-6.4-2.9-6.4-6.4c0-3.6,2.9-6.4,6.4-6.4c3.6,0,6.4,2.9,6.4,6.4
			C47.5,193.3,44.6,196.2,41.1,196.2L41.1,196.2z M41.1,187.6c-1.2,0-2.1,1-2.1,2.1s1,2.1,2.1,2.1c1.2,0,2.1-1,2.1-2.1
			S42.3,187.6,41.1,187.6z"/>
		<path class="st3" d="M179.5,247.5c-1.7,0-3.2-1-3.9-2.5L134,156.5c-0.9-2.2,0.1-4.7,2.3-5.6c2.1-0.9,4.4,0,5.5,2l41.7,88.5
			c1,2.1,0.1,4.7-2.1,5.7C180.8,247.4,180.2,247.5,179.5,247.5L179.5,247.5z"/>
		<path class="st3" d="M39.3,111.3C28.8,72.5,51.8,32.5,90.6,22c29.4-8,60.7,3.3,78.4,28.2l-7,5C141.4,26.3,101.3,19.5,72.4,40
			c-21.9,15.6-31.8,43.1-24.8,69L39.3,111.3z"/>
		<path class="st3" d="M109.5,165.1c-20.9,0-40.8-9-54.6-24.7l6.5-5.7c23.4,26.7,64,29.3,90.6,5.9c16.5-14.5,24.4-36.3,21.1-58
			l8.6-1.3c6.1,39.8-21.3,76.9-61,83c-3.7,0.6-7.3,0.8-11,0.8L109.5,165.1z"/>
		<path class="st3" d="M74.1,36.3c-9.3,0-16.9-7.6-16.9-16.9c0-9.3,7.6-16.9,16.9-16.9c2,0,3.9,0.3,5.7,1l0,0
			C88.6,6.7,93.2,16.3,90,25.1C87.6,31.8,81.3,36.3,74.1,36.3z M74.1,11.1c-4.6,0-8.3,3.7-8.3,8.3s3.7,8.3,8.3,8.3
			c4.6,0,8.3-3.7,8.3-8.3c0-3.5-2.2-6.6-5.4-7.8l0,0C76.1,11.3,75.1,11.1,74.1,11.1L74.1,11.1z"/>
		<path class="st3" d="M43.3,145.4c-1.6,0-3-0.9-3.8-2.3l-14.7-27.3c-1.1-2.1-0.3-4.7,1.8-5.8c0.3-0.2,0.7-0.3,1.1-0.4
			C79.9,98,129.1,75.5,172.1,43.7c1.9-1.4,4.6-1,6,0.9c0.1,0.2,0.2,0.3,0.3,0.5l14.7,27.3c1,1.9,0.5,4.2-1.2,5.5
			c-44,32.5-94.3,55.5-147.6,67.4C43.9,145.4,43.6,145.5,43.3,145.4z M35.1,116.8l10.5,19.5c49.8-11.6,96.8-33,138.2-63l-10.4-19.7
			c-41.5,29.9-88.4,51.4-138.1,63.2L35.1,116.8z"/>
		<path class="st4" d="M66.6,84.3c-2.4,0-4.3-1.9-4.3-4.3c0-0.3,0-0.6,0.1-0.9c3.4-15.2,14.5-27.5,29.2-32.4
			c2.2-0.8,4.7,0.4,5.5,2.6c0.8,2.2-0.4,4.7-2.6,5.5c-11.9,4-20.9,13.9-23.6,26.2C70.4,83,68.6,84.4,66.6,84.3z"/>
	</g>
</g>
<g id="Saturn" class="st0">
	<rect class="st5" width="250" height="250"/>
	<path class="st17" d="M7205.3,7412.8c-130.7,0-236.6-105.9-236.6-236.6s105.9-236.6,236.6-236.6c130.7,0,236.6,105.9,236.6,236.6
		l0,0C7441.8,7306.8,7335.9,7412.6,7205.3,7412.8z M7205.3,6963.3c-117.6,0-212.9,95.3-212.9,212.9s95.3,212.9,212.9,212.9
		s212.9-95.3,212.9-212.9l0,0C7418.1,7058.6,7322.8,6963.3,7205.3,6963.3L7205.3,6963.3z"/>
	<path class="st18" d="M7359.3,7188.8h-1.8c-6.5-1-10.9-7.1-9.9-13.5c3.4-21.3-0.7-43.2-11.5-61.9c-8.7-14.7-21.2-26.6-36.3-34.6
		c-5.8-3.1-8-10.3-4.9-16.1c3.1-5.8,10.3-8,16.1-4.9l0,0c18.9,10,34.6,25.1,45.6,43.5c13.6,23.4,18.7,50.9,14.5,77.6
		C7370.1,7184.6,7365.1,7188.8,7359.3,7188.8z"/>
	<path class="st19" d="M6979,7182c0,0-104.8,33.7-106.2,74.7c1.3,28.8,104.8,52.5,338,9.7c233.2-42.7,308.2-104.7,310.9-133.1
		c2.7-28.4-80.4-36.8-115.3-32.6"/>
	<path class="st17" d="M7464.4,7018.3c-35.8,0-64.9-29-64.9-64.9c0-35.8,29-64.9,64.9-64.9s64.9,29,64.9,64.9
		C7529.2,6989.2,7500.2,7018.2,7464.4,7018.3z M7464.4,6912.3c-22.7,0-41.1,18.4-41.1,41.1s18.4,41.1,41.1,41.1s41.1-18.4,41.1-41.1
		c-0.3-22.5-18.6-40.7-41.1-40.7V6912.3z"/>
	<path class="st17" d="M7048.5,7442.7c-9.8,0-17.8-8-17.8-17.8c0-9.8,8-17.8,17.8-17.8c9.8,0,17.8,8,17.8,17.8l0,0
		C7066.3,7434.7,7058.4,7442.7,7048.5,7442.7z M7048.5,7419c-3.3,0-5.9,2.7-5.9,5.9c0,3.3,2.7,5.9,5.9,5.9c3.3,0,5.9-2.7,5.9-5.9
		l0,0C7054.5,7421.6,7051.8,7419,7048.5,7419z"/>
	<g class="st2">
		<path class="st7" d="M127.9,215.2c-47.7,0-86.3-38.6-86.3-86.3s38.6-86.3,86.3-86.3c47.7,0,86.3,38.6,86.3,86.3l0,0
			C214.1,176.5,175.5,215.1,127.9,215.2z M127.9,51.2C85,51.2,50.2,86,50.2,128.8c0,42.9,34.8,77.6,77.6,77.6
			c42.9,0,77.6-34.8,77.6-77.6l0,0C205.5,86,170.7,51.2,127.9,51.2L127.9,51.2z"/>
		<path class="st4" d="M184,133.5h-0.7c-2.4-0.4-4-2.6-3.6-4.9c1.2-7.8-0.2-15.8-4.2-22.6c-3.2-5.3-7.7-9.7-13.2-12.6
			c-2.1-1.1-2.9-3.8-1.8-5.9c1.1-2.1,3.8-2.9,5.9-1.8l0,0c6.9,3.7,12.6,9.2,16.6,15.9c5,8.6,6.8,18.6,5.3,28.3
			C188,131.9,186.2,133.5,184,133.5z"/>
		<path class="st20" d="M45.3,131c0,0-38.2,12.3-38.7,27.3c0.5,10.5,38.2,19.1,123.3,3.6s112.4-38.2,113.4-48.5s-29.3-13.4-42-11.9"
			/>
		<path class="st7" d="M222.4,71.3c-13.1,0-23.7-10.6-23.7-23.7s10.6-23.7,23.7-23.7c13.1,0,23.7,10.6,23.7,23.7
			C246,60.6,235.4,71.2,222.4,71.3z M222.4,32.6c-8.3,0-15,6.7-15,15s6.7,15,15,15s15-6.7,15-15c-0.1-8.2-6.8-14.8-15-14.9V32.6z"/>
		<path class="st7" d="M70.7,226.1c-3.6,0-6.5-2.9-6.5-6.5c0-3.6,2.9-6.5,6.5-6.5c3.6,0,6.5,2.9,6.5,6.5l0,0
			C77.2,223.2,74.3,226.1,70.7,226.1z M70.7,217.4c-1.2,0-2.2,1-2.2,2.2c0,1.2,1,2.2,2.2,2.2s2.2-1,2.2-2.2l0,0
			C72.8,218.4,71.9,217.4,70.7,217.4z"/>
	</g>
</g>
<g id="Signal_Dish" class="st0">
	<rect class="st5" width="250" height="250"/>
	<g class="st2">
		<path class="st7" d="M173.1,245c-2.3,0-4.4-1.6-5-3.8l-20.8-73.8c-0.8-2.8,0.8-5.6,3.6-6.4c2.8-0.8,5.6,0.8,6.4,3.6l20.8,73.8
			c0.8,2.8-0.8,5.6-3.6,6.4C174.1,244.9,173.6,245,173.1,245z"/>
		<path class="st21" d="M73.5,245c-2.9,0-5.2-2.3-5.2-5.2c0-0.4,0.1-0.8,0.2-1.3l12.3-50.3c0.5-2.8,3.2-4.7,6.1-4.2
			c2.8,0.5,4.7,3.2,4.2,6.1c0,0.2-0.1,0.4-0.1,0.6L78.6,241C78,243.3,75.9,245,73.5,245z"/>
		<path class="st7" d="M221.2,245H29.9c-2.9,0-5.2-2.3-5.2-5.2s2.3-5.2,5.2-5.2h191.3c2.9,0,5.2,2.3,5.2,5.2S224.1,245,221.2,245z"
			/>
		<path class="st7" d="M206.1,166.1c11.2,0,11.2-17.4,0-17.4S194.9,166.1,206.1,166.1z"/>
		<path class="st7" d="M101,20.7c11.2,0,11.2-17.4,0-17.4S89.8,20.7,101,20.7z"/>
		<path class="st7" d="M61.4,87.3c-14.5,0-26.3-11.8-26.3-26.3s11.8-26.3,26.3-26.3S87.6,46.5,87.6,61
			C87.6,75.5,75.9,87.3,61.4,87.3z M61.4,45.2c-8.8,0-15.9,7.1-15.9,15.9s7.1,15.9,15.9,15.9S77.2,69.8,77.2,61
			C77.2,52.3,70.1,45.2,61.4,45.2L61.4,45.2z"/>
		<g>
			<path class="st8" d="M179.6,91.1c0.4-29.6-13.5-57.6-37.4-75.1L14.5,146.7c16.9,22.5,42.4,34.7,72.2,34.7c0.7,0,1.4,0,2.2,0
				l4.2-15.3l47.9-1.6C164,148.2,179.2,121.5,179.6,91.1z"/>
			<path class="st7" d="M86.7,181.4c-29.9,0-55.3-12.2-72.2-34.7L142.2,16c23.9,17.5,37.8,45.5,37.4,75.1
				c-0.4,30.4-15.6,57.1-38.6,73.5l12.1-0.4l0.9,3.4c7.1-6.1,13.4-13.1,18.7-21.1C204,99.5,191.3,36.1,144.4,4.9
				c-2.1-1.4-4.9-1.1-6.6,0.7L4,142.5c-1.7,1.8-2,4.5-0.6,6.6c18.7,27.4,48.2,42.6,82.6,42.8l2.8-10.4
				C88.1,181.4,87.4,181.4,86.7,181.4z"/>
			<path class="st22" d="M86.7,186.9L86.7,186.9c-0.3,0-0.5,0-0.7,0l-13.1,52.9h99.8L154,162.6C135.5,178.3,111.7,187.2,86.7,186.9z
				"/>
			<path class="st7" d="M86.7,191.9c24.9,0.3,48.7-8.6,67.2-24.4l-0.9-3.4l-12.1,0.4c-14.8,10.5-32.7,16.7-52.1,16.9L86,191.8
				C86.3,191.8,86.5,191.9,86.7,191.9L86.7,191.9z"/>
		</g>
		<path class="st7" d="M239.1,41.5c11.2,0,11.2-17.4,0-17.4S227.9,41.5,239.1,41.5z"/>
		<path class="st4" d="M114.5,145.1c-2.9,0-5.2-2.3-5.2-5.2c0-2.2,1.4-4.2,3.5-4.9c8.6-2.9,16.2-7.9,22.1-14.8
			c7.6-8.9,11.9-20.1,12.3-31.8c0-2.8,2.3-5.1,5.2-5c0.1,0,0.1,0,0.2,0c2.9,0.1,5.1,2.5,5,5.4c0,0,0,0,0,0
			c-0.4,14-5.7,27.5-14.8,38.2c-7.2,8.2-16.4,14.4-26.7,17.8C115.6,145,115,145.1,114.5,145.1z"/>
	</g>
</g>
<g id="Space_Station" class="st0">
	<rect class="st5" width="250" height="250"/>
	<g class="st2">
		<path class="st10" d="M204.8,150.8H45.2c-18.5,0-33.5-15-33.5-33.5s15-33.5,33.5-33.5h159.5c18.5,0,33.5,15,33.5,33.5
			S223.3,150.8,204.8,150.8z M45.2,93.8c-13,0-23.5,10.5-23.5,23.5s10.5,23.5,23.5,23.5h159.5c13,0,23.5-10.5,23.5-23.5
			s-10.5-23.5-23.5-23.5l0,0H45.2z"/>
		<path class="st10" d="M192.7,93.8c-2.4,0-4.5-1.7-4.9-4.1c-5.4-34.7-38-58.4-72.6-52.9C88,41,66.7,62.3,62.3,89.5
			c-0.5,2.7-3.1,4.5-5.8,4c-2.7-0.5-4.5-3.1-4-5.8c6.6-40.1,44.3-67.2,84.4-60.7c31.2,5.1,55.7,29.6,60.7,60.9
			c0.5,2.7-1.3,5.3-4,5.8c0,0,0,0,0,0L192.7,93.8z"/>
		<path class="st10" d="M186.7,247.5H63.3c-2.8,0-5-2.2-5-5c0-0.6,0.1-1.1,0.3-1.6L93,147.2c1.2-2.5,4.2-3.5,6.7-2.3
			c2.1,1,3.2,3.4,2.7,5.6l-32,86.9h109.3l-29.6-87c-0.9-2.6,0.5-5.5,3.1-6.4c2.6-0.9,5.5,0.5,6.4,3.1l31.9,93.6
			c0.9,2.6-0.4,5.4-3,6.4c-0.5,0.2-1.1,0.3-1.7,0.3L186.7,247.5z"/>
		<path class="st10" d="M125,35.7c-9.2,0-16.6-7.4-16.6-16.6S115.9,2.5,125,2.5s16.6,7.4,16.6,16.6S134.2,35.7,125,35.7z M125,12.2
			c-3.7,0-6.6,3-6.6,6.6s3,6.6,6.6,6.6c3.7,0,6.6-3,6.6-6.6C131.6,15.2,128.7,12.3,125,12.2L125,12.2z"/>
		<path class="st4" d="M198.2,122.3H46.9c-3.5,0-6.3-2.2-6.3-5c0-2.8,3-5,6.3-5h151.3c9.7,0,10.5,2.2,10.5,5
			C208.7,120,207.9,122.3,198.2,122.3z"/>
		<path class="st10" d="M206.9,213.5c10.7,0,10.7-16.6,0-16.6S196.2,213.5,206.9,213.5z"/>
		<path class="st10" d="M219.3,58c2.3,0,4.2-1.9,4.2-4.2c0-2.3-1.9-4.2-4.2-4.2c-2.3,0-4.2,1.9-4.2,4.2C215.2,56.2,217,58,219.3,58z
			"/>
		<path class="st10" d="M24.4,55.5c3.4-0.3,6-3.2,5.8-6.7c-0.2-3.1-2.7-5.6-5.8-5.8c-3.4,0.3-6,3.2-5.8,6.7
			C18.8,52.8,21.3,55.3,24.4,55.5z"/>
	</g>
</g>
<g id="System" class="st0">
	<rect class="st5" width="250" height="250"/>
	<g class="st2">
		<path class="st10" d="M153.1,195.2c-36.7,0-66.5-29.8-66.5-66.5c0-36.7,29.8-66.5,66.5-66.5c36.7,0,66.5,29.8,66.5,66.5l0,0
			C219.5,165.4,189.8,195.2,153.1,195.2z M153.1,71.2c-31.8,0-57.5,25.8-57.5,57.5c0,31.8,25.8,57.5,57.5,57.5
			c31.8,0,57.5-25.8,57.5-57.5l0,0c-0.1-31.7-25.8-57.4-57.5-57.4V71.2z"/>
		<path class="st10" d="M153.1,223.4c-17.7,0-35-4.9-50-14.3c-2.1-1.2-2.9-3.9-1.7-6.1c1.2-2.1,3.9-2.9,6.1-1.7
			c0.1,0.1,0.2,0.1,0.4,0.2c40.1,25.1,92.9,13,118-27.1c25.1-40.1,13-92.9-27.1-118c-4.3-2.7-8.9-5-13.6-6.9
			c-2.3-0.9-3.4-3.5-2.5-5.8c0.9-2.3,3.5-3.4,5.8-2.5c48.4,19.6,71.7,74.7,52.1,123.1C226.1,200,191.5,223.4,153.1,223.4
			L153.1,223.4z"/>
		<path class="st10" d="M160.2,126.6c-11.2,0-20.3-9.1-20.3-20.3c0-11.2,9.1-20.3,20.3-20.3c11.2,0,20.3,9.1,20.3,20.3
			C180.5,117.5,171.4,126.6,160.2,126.6z M160.2,95c-6.3,0-11.4,5.1-11.4,11.4c0,6.3,5.1,11.4,11.4,11.4c6.3,0,11.4-5.1,11.4-11.4
			C171.6,100,166.5,95,160.2,95L160.2,95z"/>
		<path class="st10" d="M175,143.1c9.6,0,9.6-14.9,0-14.9C165.4,128.2,165.4,143.1,175,143.1z"/>
		<path class="st10" d="M38.6,213.3c-20,0-36.1-16.2-36.1-36.1c0-20,16.2-36.1,36.1-36.1s36.1,16.2,36.1,36.1c0,0,0,0,0,0
			C74.8,197.1,58.6,213.3,38.6,213.3z M38.6,150c-15,0-27.2,12.2-27.2,27.2c0,15,12.2,27.2,27.2,27.2s27.2-12.2,27.2-27.2
			c0,0,0,0,0,0C65.8,162.2,53.6,150.1,38.6,150L38.6,150z"/>
		<path class="st10" d="M26.4,187c9.6,0,9.6-14.9,0-14.9S16.9,187,26.4,187z"/>
		<path class="st10" d="M81.4,204.4c3.1-0.2,5.4-2.9,5.2-6c-0.2-2.8-2.4-5-5.2-5.2c-3.1,0.2-5.4,2.9-5.2,6
			C76.5,202,78.7,204.2,81.4,204.4z"/>
		<path class="st10" d="M127.9,56.3c19.1,0,19.2-29.7,0-29.7S108.8,56.3,127.9,56.3z"/>
		<path class="st23" d="M145.7,162.5c-10.8,1.5-21-5.5-23.5-16.2"/>
	</g>
</g>
<g id="Telescope" class="st0">
	<rect class="st5" width="250" height="250"/>
	<g class="st2">
		<path class="st3" d="M124,247.5c-2.9,0-5.3-2.4-5.3-5.3V125.1c0-2.9,2.4-5.3,5.3-5.3c2.9,0,5.3,2.4,5.3,5.3l0,0v117.1
			C129.3,245.1,126.9,247.5,124,247.5z"/>
		<path class="st3" d="M194.6,247.5c-1.5,0-3-0.7-4-1.8l-70.5-81.9c-1.9-2.2-1.7-5.6,0.5-7.5c2.2-1.9,5.6-1.7,7.5,0.5l70.5,81.9
			c1.9,2.2,1.7,5.6-0.5,7.5c-1,0.8-2.2,1.3-3.4,1.3V247.5z"/>
		<path class="st3" d="M49.6,247.5c-2.9,0-5.3-2.4-5.3-5.3c0-1.3,0.5-2.6,1.4-3.6l74.5-81.9c1.8-2.3,5.1-2.8,7.4-1.1
			c2.3,1.8,2.8,5.1,1.1,7.4c-0.2,0.3-0.4,0.5-0.6,0.7l-74.5,81.9C52.5,246.8,51.1,247.5,49.6,247.5z"/>
		<path class="st24" d="M128.6,85.2c0.4-0.2,2.3-1.3,6.8-3.5c3.5-1.6,6.3-3,7.3-3.5"/>
		<circle class="st25" cx="227.8" cy="183.7" r="2.6"/>
		<path class="st3" d="M39.8,57.6c-12.2,0-22.2-9.9-22.2-22.2c0-12.2,9.9-22.2,22.2-22.2c12.2,0,22.2,9.9,22.2,22.2
			C62,47.6,52.1,57.5,39.8,57.6z M39.8,23.8c-6.4,0-11.6,5.2-11.6,11.6c0,6.4,5.2,11.6,11.6,11.6s11.6-5.2,11.6-11.6
			C51.3,29.1,46.1,24,39.8,24V23.8z"/>
		<path class="st3" d="M111.6,131.6c-2.2,0-4.3-1.4-5-3.5L87.4,71.7c-0.9-2.5,0.3-5.3,2.7-6.5l67.3-32.7c2.6-1.3,5.8-0.2,7.1,2.5
			c0.1,0.2,0.2,0.4,0.2,0.6l24.9,71.7c1,2.7-0.3,5.8-3,6.8c-0.2,0.1-0.5,0.2-0.7,0.2l-73,17.6C112.4,131.8,112,131.8,111.6,131.6z
			 M98.9,72.5l16.2,47.5l62.6-15.1l-21.2-60.5L98.9,72.5z"/>
		<path class="st3" d="M50.7,143.5c-2.3,0-4.3-1.4-5-3.5l-10.8-34.1c-0.8-2.5,0.4-5.3,2.8-6.4l55.6-25.9c2.7-1.2,5.8-0.1,7,2.6
			c0.1,0.2,0.1,0.3,0.2,0.5l14.4,43c0.9,2.8-0.6,5.8-3.3,6.7c-0.1,0-0.1,0-0.2,0.1L52,143.3C51.6,143.4,51.1,143.5,50.7,143.5z
			 M46.3,106.9l7.9,24.7l49-14.1L92.3,85.3L46.3,106.9z"/>
		<path class="st3" d="M191.9,130.7c-2.2,0-4.2-1.4-5-3.5l-38.8-108c-1-2.8,0.4-5.8,3.2-6.8c0,0,0,0,0,0l26.6-9.5
			c2.7-1,5.8,0.4,6.8,3.2l38.8,108c1,2.8-0.4,5.8-3.2,6.8c0,0,0,0,0,0l-26.6,9.5C193.2,130.5,192.5,130.7,191.9,130.7z M159.9,20.5
			l35.3,98.1l16.6-6l-35.3-98.1L159.9,20.5z"/>
		<path class="st3" d="M216.7,106.1c-2.9,0-5.3-2.4-5.3-5.3c0-1.1,0.4-2.3,1.1-3.2c5.4-7.3,8.5-16,9.1-25c0.3-8.4-1.6-16.8-5.6-24.3
			c-3.6-6.7-8.7-12.4-15-16.8c-4.6-3.4-9.6-6-15-7.8c-2.8-1-4.2-4-3.2-6.8c1-2.8,4-4.2,6.8-3.2c6.4,2.2,12.5,5.3,17.9,9.3
			c7.5,5.3,13.7,12.3,18,20.4c4.8,9.2,7.2,19.4,6.8,29.8c-0.6,11.1-4.5,21.8-11.1,30.8C220.1,105.3,218.5,106.1,216.7,106.1z"/>
	</g>
</g>
</svg>
